<svg width="120" height="108" viewBox="0 0 120 108" fill="none" xmlns="http://www.w3.org/2000/svg">
<path d="M96.3229 1.25374C95.7874 1.81745 95.0969 2.46571 94.815 2.69119L94.2936 3.09987L94.2513 7.84908L94.1949 12.5983L92.9125 13.9089L91.6301 15.2195L91.7006 13.1761C91.771 11.3159 91.5455 6.17206 91.3905 6.01704C91.3623 5.98886 91.1368 6.11569 90.8973 6.31299C90.5027 6.65121 89.6853 6.97534 89.2203 6.97534C89.0652 6.97534 89.0511 7.31356 89.1357 8.83556C89.2907 11.6823 89.2625 14.4726 89.0652 16.3469L88.882 18.038L79.9896 26.8882C75.0995 31.7642 69.0678 37.6549 66.5875 39.9802C64.1072 42.3055 61.331 44.9831 60.4291 45.9273C59.5272 46.8574 58.7802 47.5479 58.7662 47.4634C58.7662 47.1956 58.0052 46.8574 57.4274 46.8574C56.61 46.8574 55.7081 47.4916 55.2571 48.3653C55.0175 48.8304 55.0739 50.0987 55.3698 50.7469C55.9899 52.1139 57.8924 52.4803 59.3862 51.4939C60.1895 50.9583 60.5982 50.3101 60.5982 49.5632C60.5982 49.084 60.6827 48.929 61.1337 48.5485C61.4156 48.2948 62.7403 47.0406 64.0509 45.7441C65.3756 44.4616 67.8136 42.0659 69.4765 40.4453C71.1395 38.8246 76.551 33.4694 81.4834 28.5652C89.1216 20.9834 90.5168 19.6587 90.7845 19.7291C90.9677 19.7714 92.8561 19.856 94.9841 19.9405L98.8596 20.0674L99.4233 19.701C100.621 18.9118 103.567 16.4315 104.891 15.0927C105.652 14.3317 106.667 13.3875 107.146 13.007C108.161 12.1896 109.26 11.189 109.189 11.1467C109.161 11.1186 107.343 11.034 105.131 10.9354C100.988 10.7662 100.198 10.6958 100.198 10.4985C100.198 10.428 101.382 9.24425 102.834 7.86317C106.596 4.28365 107.188 3.69176 107.456 3.18443C107.794 2.50798 107.639 2.08521 106.991 1.91609C105.92 1.60606 105.709 1.67652 104.652 2.77574C104.102 3.32535 102.989 4.35411 102.185 5.05874C101.368 5.76337 99.8602 7.17263 98.8314 8.20139L96.9571 10.0616V7.86317C96.9571 6.6653 97.0557 4.63597 97.1826 3.35354C97.2953 2.08521 97.3799 0.85915 97.3517 0.633668C97.3094 0.239075 97.2953 0.239075 96.3229 1.25374ZM103.905 13.1197C104.905 13.2043 105.624 13.5848 105.342 13.8666C104.919 14.2894 98.31 14.2894 96.9994 13.8666C96.4498 13.6834 96.4357 13.6552 96.8584 13.2043L97.1685 12.866L100.057 12.9506C101.65 13.007 103.369 13.0774 103.905 13.1197ZM98.6905 16.2624C100.663 16.361 101.086 16.4174 101.326 16.6288C101.734 16.9952 101.678 17.1784 101.03 17.5307C100.593 17.7844 100.325 17.8407 99.9447 17.7703C99.6488 17.728 97.9999 17.6152 96.2525 17.5448C94.5191 17.4602 93.0675 17.3616 93.0253 17.3334C92.9971 17.2911 93.2226 17.0234 93.5185 16.7133C94.0681 16.1637 94.0681 16.1637 95.1955 16.1496C95.8156 16.1496 97.3799 16.206 98.6905 16.2624Z" fill="url(#paint0_linear_4007_475)"/>
<path d="M58.907 2.26847C56.2717 2.39531 51.6071 3.15631 48.549 3.94549C41.3195 5.8339 33.8363 9.70936 28.5093 14.3036C24.1265 18.0663 20.9698 21.9558 17.1507 28.2552C13.9798 33.5118 11.7673 39.3743 10.5553 45.8005C10.1889 47.8017 9.72388 51.5644 9.72388 52.7059V53.1287H16.3615H22.9991L22.9005 52.5086C22.7032 51.1839 22.8159 46.6883 23.0978 44.814C23.5628 41.6573 24.7184 37.6973 26.0008 34.7942C27.0578 32.3844 30.13 27.9875 32.4693 25.4931C36.0629 21.6599 41.545 18.2072 46.6183 16.5443C50.7333 15.2196 53.4955 14.7263 57.075 14.7263C63.7126 14.7263 69.8429 16.2906 75.3249 19.4192C76.9878 20.3634 78.9467 21.6599 79.8627 22.4209C80.2573 22.7591 80.6237 23.041 80.6801 23.041C80.7365 23.041 81.4411 22.4068 82.2585 21.6317C83.0618 20.8566 84.4005 19.6587 85.232 18.9541L86.754 17.6999L86.9936 15.6142C87.2473 13.3734 87.2895 11.9783 87.1345 9.58253L87.05 8.06053L85.6125 7.38409C80.2996 4.8756 74.0143 3.08584 68.3491 2.46577C66.9539 2.31075 60.7391 2.18392 58.907 2.26847ZM72.0836 7.72231C72.3232 8.38466 72.591 9.01883 72.6896 9.11748C72.7882 9.21612 73.352 9.42751 73.9579 9.58253C74.9726 9.85029 75.0431 9.89257 75.0853 10.2731C75.1135 10.4986 75.0713 10.7381 75.0008 10.8086C74.9162 10.8931 74.3666 11.0482 73.7606 11.175L72.6755 11.4146L72.2809 12.5279C72.0695 13.1339 71.8018 13.7258 71.6749 13.8526C71.4776 14.0499 71.4354 14.0499 71.1817 13.8244C71.0408 13.6835 70.8012 13.148 70.6744 12.6265C70.5475 12.1192 70.4066 11.6119 70.3361 11.5132C70.2798 11.4146 69.6738 11.2314 68.9692 11.0904C67.7149 10.8509 67.7149 10.8509 67.6726 10.3999C67.6163 9.87848 67.8136 9.73755 68.7719 9.58253C69.9979 9.38523 70.2375 9.21612 70.5193 8.3001C70.8717 7.1727 71.2944 6.38351 71.4917 6.45397C71.5904 6.48216 71.8581 7.04586 72.0836 7.72231ZM52.6922 9.03292C53.1995 9.68118 53.0304 10.5267 52.3258 10.9072C51.4661 11.3582 50.6206 9.86438 51.2407 8.97655C51.5507 8.52559 52.3117 8.55377 52.6922 9.03292ZM40.0371 13.1621C40.7135 13.8526 40.5162 14.7686 39.6002 15.1491C39.2056 15.3182 39.1351 15.3041 38.811 14.9941C38.2755 14.5008 38.1627 14.0922 38.3882 13.5426C38.7546 12.6688 39.4029 12.5279 40.0371 13.1621ZM80.6801 13.3312C81.7793 13.8385 81.737 14.7122 80.5955 15.4451C79.8768 15.896 79.8627 15.896 79.6373 15.6283C79.5104 15.4873 79.2427 15.2478 79.0313 15.1068C78.7353 14.9236 78.6367 14.7545 78.6367 14.4022C78.6367 13.8526 78.834 13.5707 79.4118 13.2607C79.9614 12.9788 79.9332 12.9788 80.6801 13.3312ZM30.5668 20.307C31.1869 21.0962 30.75 22.1954 29.8199 22.1954C29.0871 22.1954 28.4529 21.3358 28.763 20.7439C29.228 19.8419 30.0454 19.6446 30.5668 20.307ZM22.5904 30.7073C23.4078 31.4402 23.5487 31.7784 23.2528 32.3421C23.1823 32.483 22.9286 32.638 22.6891 32.6944C22.4072 32.7508 22.1817 32.934 22.0549 33.2017C21.8858 33.5118 21.7308 33.6104 21.4207 33.6104C21.0825 33.6104 21.012 33.5399 20.9698 33.2299C20.9416 32.9481 20.8288 32.8212 20.5329 32.7508C19.941 32.5957 19.7296 32.3562 19.7296 31.877C19.7296 31.4261 20.1947 30.7919 20.5329 30.7919C20.6456 30.7919 20.8007 30.6087 20.8711 30.3832C21.012 29.9745 21.3503 29.7772 21.6321 29.9322C21.7167 29.9604 22.1395 30.3127 22.5904 30.7073Z" fill="url(#paint1_linear_4007_475)"/>
<path d="M24.2534 5.59425C22.0972 6.74984 22.985 9.85021 25.409 9.61064C26.6209 9.4979 27.4101 8.66643 27.4101 7.46856C27.4101 5.79154 25.7331 4.80506 24.2534 5.59425Z" fill="white" fill-opacity="0.56"/>
<path d="M16.5588 13.6835C15.671 14.1345 15.2059 15.2196 15.5441 16.037C16.0092 17.1503 17.1789 17.5731 18.1513 16.9812C19.5605 16.1215 19.4337 14.2895 17.9399 13.6553C17.3621 13.4016 17.0802 13.4157 16.5588 13.6835Z" fill="white" fill-opacity="0.56"/>
<path d="M55.1021 17.2066C54.9048 17.2348 54.186 17.3334 53.4814 17.418C50.4938 17.7703 46.7874 18.9259 43.6166 20.5042C39.8821 22.3504 37.1481 24.3374 34.4564 27.17C29.3972 32.4829 26.5786 38.4582 25.719 45.6595C24.8734 52.8608 26.635 60.4286 30.5105 66.2347C34.4564 72.1536 40.488 76.776 47.0834 78.9744C50.8743 80.2287 54.637 80.7642 58.6252 80.6374C61.3592 80.5528 62.6839 80.3555 65.601 79.6368C71.1817 78.2557 74.8881 76.3814 78.7354 73.0273C82.329 69.8706 84.7247 66.7984 86.6131 62.8666C89.4316 56.99 90.3899 49.8732 89.1921 43.6866C88.1774 38.43 85.838 32.9762 83.4141 30.2281L82.9913 29.7349L82.2303 30.5804C81.8075 31.0455 81.4552 31.4824 81.4552 31.5387C81.4552 31.5951 81.8216 32.2293 82.2726 32.948C83.5973 35.0478 84.2456 36.302 84.9925 38.275C86.0353 41.0512 86.8245 44.3912 87.0359 46.9138L87.1345 48.168L86.2467 48.0834C85.7535 48.0271 84.4288 47.9848 83.2873 47.9848H81.2157L81.117 46.8151C80.9197 44.2644 79.9896 41.0372 78.7776 38.7119C78.0025 37.2321 77.0724 35.7947 76.9174 35.8511C76.861 35.8652 76.2269 36.4993 75.5081 37.2462C74.7894 37.9931 74.4371 38.4018 74.7331 38.1482C75.029 37.8945 75.2968 37.6972 75.3249 37.6972C75.4518 37.6972 76.6637 40.0789 77.0865 41.1499C77.7207 42.7283 78.4535 45.434 78.5662 46.5474C78.6226 47.0688 78.6931 47.6043 78.7354 47.7452C78.7917 47.9707 78.6226 47.9848 76.1423 47.9566L73.4929 47.9143L73.3802 46.9279C73.2392 45.5327 72.6755 43.6725 71.9991 42.3337L71.4213 41.1781L70.5053 42.0941L69.5752 43.0242L70.012 44.0671C70.5616 45.3918 70.9844 47.0688 71.0972 48.4076C71.2663 50.3383 70.5053 53.4668 69.3215 55.7498C68.6873 56.9618 66.7003 59.2025 65.5729 59.9776C64.0368 61.0345 61.3733 62.0774 59.654 62.3029L58.9071 62.4015V60.0763V57.751L59.8372 57.5255C62.5007 56.8631 64.53 55.0593 65.9111 52.1139C66.3902 51.0993 66.4325 50.902 66.4889 49.4363C66.5312 48.2103 66.4889 47.6889 66.3057 47.0688C66.1648 46.646 66.0379 46.2937 66.0238 46.2937C65.9956 46.2937 65.5306 46.7587 64.981 47.3084L63.9804 48.3371V49.1968C63.9804 51.522 62.6557 53.6077 60.5559 54.6083C57.991 55.8485 55.2289 55.3411 53.2982 53.2836C52.3117 52.2267 51.8749 51.2402 51.7621 49.7887C51.5789 47.5902 52.4527 45.5609 54.0874 44.4335C55.4685 43.4893 57.4978 43.0524 59.2171 43.3342L60.1895 43.5034L60.9364 42.7142C61.3592 42.2773 61.7679 41.925 61.8524 41.925C61.937 41.925 62.0074 41.8686 62.0074 41.7982C62.0074 41.6009 60.6545 41.0794 59.7385 40.9103L58.9071 40.7694V39.6138C58.9071 38.9937 58.9493 37.8522 59.0057 37.0912L59.0903 35.7101L59.6681 35.7947C61.5847 36.0906 63.1912 36.6825 64.8964 37.7536L65.601 38.1904L66.5453 37.2744L67.5035 36.3443L66.0238 35.5269C63.6281 34.2022 61.1196 33.3285 59.6681 33.3285H59.0621L59.0198 30.5804L58.9775 27.8324H59.3298C60.0063 27.8324 61.5283 28.1283 63.0644 28.5511C64.9387 29.0725 67.6727 30.3691 69.8147 31.7783L71.3649 32.793L71.6468 32.3843C71.9991 31.9051 72.436 31.4824 72.8024 31.2569C73.0701 31.1019 73.0701 31.1019 72.7883 30.82C71.9286 29.9463 68.1377 27.8042 65.9252 26.9305C64.22 26.2681 60.6968 25.4366 59.513 25.4366C59.2735 25.4366 59.0198 25.3662 58.9634 25.2816C58.9212 25.1971 58.9212 23.8865 58.9775 22.3786L59.0762 19.6446L60.0204 19.7291C65.7138 20.2647 71.0408 22.2799 75.5504 25.6198C77.2134 26.8318 77.0442 26.8177 78.0589 25.803L78.9326 24.9152L77.9744 24.2106C76.5228 23.1396 73.8029 21.4766 72.1541 20.6452C69.2228 19.1795 66.0238 18.1226 62.4725 17.4743C61.2887 17.2488 55.9617 17.0515 55.1021 17.2066ZM56.5113 22.4772V25.4366H55.6517C55.1866 25.4366 54.186 25.5635 53.4391 25.7185C47.5484 26.9305 42.2637 30.1858 38.8392 34.7378C36.2462 38.2045 34.4282 42.7846 34.0336 46.956L33.9209 47.9848H31.0319H28.1429L28.2416 46.7447C28.7348 40.6144 31.1869 34.5405 34.8792 30.3268C38.8533 25.789 43.7857 22.5759 49.5355 20.8143C51.3534 20.2647 52.0722 20.1096 54.4679 19.7996C55.553 19.6587 56.455 19.5318 56.4831 19.5318C56.4972 19.5178 56.5113 20.8425 56.5113 22.4772ZM56.5395 30.51L56.4972 33.3285H55.8912C55.5671 33.3285 54.792 33.4553 54.172 33.6104C49.5073 34.8082 45.8855 37.5845 43.6589 41.6713C42.7992 43.2638 42.0805 45.3213 41.8268 46.9419L41.6718 47.9707L39.1211 48.013C37.7118 48.0412 36.5562 48.0412 36.528 48.0271C36.4998 48.0271 36.5562 47.5197 36.6408 46.9138C37.1058 43.5597 38.3037 39.952 39.6848 37.7395C42.4187 33.3849 46.5338 30.2563 51.5085 28.7061C53.6646 28.0297 54.947 27.7619 56.0885 27.7056L56.5818 27.6915L56.5395 30.51ZM56.6241 38.3596L56.5818 40.9949L55.6376 41.164C53.1573 41.629 50.5642 43.8557 49.7469 46.2232C49.1127 48.0694 49.1127 50.5215 49.7469 52.4099C50.5783 54.9043 52.9177 56.9477 55.5671 57.5255L56.5818 57.7369L56.5677 60.0622C56.5536 61.3305 56.5113 62.4015 56.4831 62.4297C56.3845 62.5284 54.3692 62.0633 53.2841 61.6687C51.8608 61.1755 49.6905 59.9635 48.7886 59.1743C46.9284 57.5396 45.2795 54.9043 44.6595 52.5508C44.293 51.1415 44.1521 48.2667 44.3776 46.9138C44.5608 45.8427 45.2654 43.5597 45.6177 42.8551C46.3647 41.3895 48.2672 39.191 49.6764 38.1904C51.6071 36.8235 54.3552 35.7665 56.1308 35.7383L56.6523 35.7242L56.6241 38.3596ZM34.0759 50.902C34.541 57.4832 37.9091 63.6135 43.3347 67.7426C45.1245 69.0955 48.845 70.998 51.0857 71.6886C52.1426 72.0127 54.947 72.5059 55.7221 72.5059H56.5818L56.5395 75.3244C56.5113 77.4101 56.455 78.143 56.3281 78.143C56.2295 78.143 55.3557 78.0443 54.3693 77.9316C51.2266 77.5652 47.182 76.3673 44.4622 75.0144C37.8104 71.6745 32.3848 65.8119 29.9468 59.273C29.2703 57.455 28.5234 54.1715 28.3966 52.424C28.3543 51.8885 28.2839 51.1838 28.2557 50.8738L28.1993 50.3101L31.1165 50.3383L34.0336 50.3805L34.0759 50.902ZM87.0782 50.4651C87.1768 50.5637 86.8245 53.6923 86.5849 54.8902C86.2608 56.4545 85.4434 59.273 84.9784 60.4708C83.3295 64.6 80.201 68.7291 76.4805 71.6322C72.8024 74.5212 69.1665 76.2123 64.1777 77.3538C62.3034 77.7906 59.2453 78.2557 59.1325 78.1289C59.1044 78.1007 59.048 76.8605 59.0057 75.3808L58.9212 72.675L59.7244 72.5764C60.725 72.4636 63.7408 71.759 64.9669 71.3503C66.4607 70.8712 69.5611 69.3351 71.069 68.3204C74.5358 66.0233 78.0307 61.6969 79.6796 57.6805C80.3419 56.074 80.9761 53.6077 81.1875 51.7757L81.3566 50.3101L84.1892 50.3524C85.7394 50.3805 87.05 50.4228 87.0782 50.4651ZM41.8973 51.3247C42.0805 53.495 43.222 56.3417 44.744 58.4838C45.5332 59.5971 47.3089 61.2741 48.5772 62.1197C50.6206 63.4726 53.6223 64.6423 55.6235 64.8395L56.5113 64.9382V66.0938L56.3281 68.8259C57.2019 68.8259 56.0322 68.8682 56.3281 68.8259C55.4685 68.8118 53.4286 68.2446 53.4286 68.2446C53.2876 68.278 51.8079 68.072 50.2577 67.4519C48.7921 66.86 46.0793 65.5724 45.0787 64.7832C42.8531 63.0319 39.9841 59.3344 38.6313 57.2859C37.6589 55.8485 37.0354 53.2836 36.7817 51.7898C36.6971 51.2825 36.5985 50.761 36.5562 50.6201C36.4857 50.3946 36.6689 50.3805 39.1492 50.3805H41.8127L41.8973 51.3247ZM78.5803 51.6489C78.4817 52.9877 77.9744 54.9888 77.5093 55.8485C77.3684 56.1444 77.2415 56.2712 77.2274 56.1585C77.2274 56.0458 76.8328 56.5531 76.3396 57.2859C73.6902 61.2741 71.1817 63.7826 67.7149 65.9247C65.9111 67.0521 62.0215 68.2641 60.0486 68.3204C59.2594 68.3486 59.1185 68.3063 59.0762 68.0949C58.9916 67.6722 59.1748 67.1789 59.4426 67.1085C59.6258 67.0521 59.5976 67.038 59.3721 67.0239C59.0621 67.0098 59.048 66.9534 59.048 65.981V64.9523L60.26 64.7832C61.5706 64.5859 63.9381 63.7967 65.3897 63.0639C67.5317 61.9928 69.9979 59.5971 71.3931 57.2436C72.2528 55.8062 73.0983 53.3682 73.3238 51.7052L73.4788 50.5356L74.8317 50.4792C75.5645 50.4651 76.7342 50.4228 77.4247 50.4087L78.679 50.3805L78.5803 51.6489Z" fill="url(#paint2_linear_4007_475)"/>
<path d="M52.8191 30.045C52.9177 30.0873 53.0445 30.0732 53.0868 30.0309C53.1432 29.9887 53.0586 29.9464 52.9036 29.9605C52.7486 29.9605 52.7063 30.0028 52.8191 30.045Z" fill="white" fill-opacity="0.56"/>
<path d="M100.903 21.0538C99.677 22.0967 99.5642 22.1249 96.8866 22.0967C95.576 22.0685 93.7017 22.0262 92.7293 21.9839L90.9677 21.8994L90.5168 22.5054C89.939 23.2805 86.2044 27.0996 85.4857 27.6492L84.9361 28.0719L85.5703 28.9034C87.5855 31.5387 89.3612 35.0337 90.6718 38.8951L91.1932 40.4452L101.833 40.4875C108.104 40.5298 112.459 40.4875 112.459 40.4171C112.459 40.2198 111.557 37.6126 111.05 36.3584C110.43 34.8082 108.231 30.4536 107.202 28.7484C105.638 26.1413 101.819 20.5042 101.622 20.5042C101.579 20.5042 101.255 20.7438 100.903 21.0538ZM97.0557 26.5218C97.2248 26.8177 97.4362 27.4519 97.5208 27.9451C97.6335 28.4947 97.7885 28.8752 97.9295 28.9598C98.0704 29.0302 98.7187 29.1712 99.3951 29.298C100.072 29.4107 100.692 29.5517 100.762 29.5939C100.847 29.6362 100.903 29.9181 100.903 30.2281C100.903 30.8623 100.861 30.8905 99.1696 31.1441C98.4791 31.2428 97.9013 31.3555 97.8731 31.3837C97.859 31.3978 97.704 31.9615 97.5349 32.6098C97.253 33.7513 96.8443 34.4559 96.4497 34.4559C96.2384 34.4559 95.9001 33.6103 95.6042 32.3561C95.3646 31.2428 95.576 31.3837 93.5044 31.0596C92.9689 30.9891 92.4475 30.8482 92.3488 30.7636C92.1515 30.5945 92.1092 29.9744 92.2783 29.7067C92.3347 29.608 93.0112 29.3967 93.7862 29.2557C94.5472 29.1007 95.2237 28.8893 95.2801 28.7907C95.3364 28.692 95.4915 28.1847 95.6324 27.6633C95.8579 26.6909 96.2665 26.0003 96.5907 26.0003C96.6893 26.0003 96.9007 26.2399 97.0557 26.5218ZM104.539 35.2592C104.821 35.4283 104.863 35.5551 104.821 36.1047C104.778 36.7248 104.75 36.7671 104.229 36.9503C103.82 37.0771 103.313 37.1053 102.355 37.0489L101.044 36.9503V36.2175C101.044 35.7947 101.114 35.4142 101.227 35.3296C101.481 35.1182 103.003 34.8928 103.651 34.9773C103.961 35.0196 104.356 35.1323 104.539 35.2592Z" fill="url(#paint3_linear_4007_475)"/>
<path d="M111.092 23.7456C110.444 24.0133 110.246 25.183 110.782 25.6622C111.036 25.8877 111.303 25.9299 112.459 25.9299C113.727 25.9299 113.868 25.9017 114.206 25.5917C114.643 25.183 114.7 24.4925 114.347 23.957C114.122 23.6187 114.051 23.6047 112.755 23.6187C112.008 23.6187 111.261 23.6751 111.092 23.7456Z" fill="white" fill-opacity="0.56"/>
<path d="M9.35751 25.9159C8.73743 26.5359 8.70925 27.1278 9.28705 27.7056C9.86484 28.2834 10.4567 28.2552 11.0768 27.6352C11.6969 27.0151 11.7251 26.4232 11.1473 25.8454C10.5695 25.2676 9.97758 25.2958 9.35751 25.9159Z" fill="white" fill-opacity="0.56"/>
<path d="M91.7428 43.0806C91.7569 43.2074 92.2219 46.4206 92.3065 46.8151C92.3065 46.8433 97.6194 46.8574 104.102 46.8574C115.855 46.8574 115.898 46.8574 116.518 46.5615C117.222 46.2092 117.955 45.2931 117.955 44.7576C117.955 44.3348 117.49 43.5034 117.067 43.1652C116.785 42.9397 115.883 42.9115 104.257 42.9115C94.3358 42.9115 91.7428 42.9538 91.7428 43.0806Z" fill="url(#paint4_linear_4007_475)"/>
<path d="M92.3065 50.2961C92.3065 50.8598 92.2642 51.7054 92.2219 52.1563L92.1374 52.9878H105.215H118.307L118.815 52.6637C119.745 52.1 120.027 51.0148 119.491 50.1411C118.913 49.1969 119.745 49.2533 105.342 49.2533H92.3065V50.2961Z" fill="url(#paint5_linear_4007_475)"/>
<path d="M91.9965 55.5384C91.8414 55.5948 91.7146 55.8908 91.616 56.5249C91.5173 57.0182 91.3341 57.8214 91.1791 58.3006C91.0241 58.7797 90.9254 59.1884 90.9395 59.2025C90.9536 59.2166 97.1262 59.2589 104.638 59.273L118.307 59.3293L118.899 58.9911C119.717 58.5261 120.168 57.6382 119.942 56.9618C119.858 56.7081 119.576 56.2853 119.322 56.0458L118.871 55.6089L105.554 55.5384C98.2254 55.4962 92.1374 55.4962 91.9965 55.5384Z" fill="url(#paint6_linear_4007_475)"/>
<path d="M6.58122 55.8486C6.01752 56.2291 5.49609 57.0042 5.49609 57.4551C5.49609 58.047 5.84841 58.6389 6.4403 59.0476L6.97582 59.3999H15.6569H24.352L24.1547 58.8503C23.8728 58.0329 23.3937 56.1445 23.3937 55.8486C23.3937 55.609 23.0555 55.5949 16.3333 55.5949C11.6827 55.5949 9.31519 55.6372 9.37156 55.7358C9.42793 55.8345 9.32928 55.8345 9.08971 55.7358C8.45554 55.4963 7.01809 55.5667 6.58122 55.8486Z" fill="url(#paint7_linear_4007_475)"/>
<path d="M4.0164 68.1855C3.4527 68.566 2.93127 69.3411 2.93127 69.792C2.93127 70.3839 3.16028 70.7955 3.75217 71.2041L4.411 71.7368H21.5758H32.2897L31.3913 70.9927C31.1094 70.1754 29.3126 68.4814 29.3126 68.1855C29.3126 67.9459 28.9744 67.9318 22.2522 67.9318C17.6017 67.9318 15.2341 67.9741 15.2905 68.0727C15.3469 68.1714 15.2482 68.1714 15.0086 68.0727C14.3745 67.8332 4.45327 67.9036 4.0164 68.1855Z" fill="url(#paint8_linear_4007_475)"/>
<path d="M89.6994 62.5847C89.5726 63.0075 89.2202 63.8813 88.9243 64.5013C88.6143 65.1355 88.3606 65.6569 88.3606 65.6569C88.3606 65.671 89.2907 65.6288 90.4322 65.5724C91.5878 65.516 96.7739 65.4737 101.96 65.4737C114.756 65.5019 113.586 65.5301 113.586 65.1073C113.586 64.9241 113.741 64.304 113.925 63.7403C114.108 63.1766 114.291 62.5143 114.319 62.2888L114.361 61.866L102.143 61.8237L89.9249 61.7956L89.6994 62.5847Z" fill="url(#paint9_linear_4007_475)"/>
<path d="M86.6131 68.2077C86.5708 68.3205 86.5708 68.5318 86.6131 68.6587C86.6836 68.856 86.6695 68.8701 86.5567 68.715C86.444 68.56 86.3876 68.5741 86.2608 68.8278C86.1621 68.9969 86.148 69.1096 86.2044 69.0955C86.3594 69.0533 87.2332 69.4479 87.2332 69.5606C87.2332 69.7015 86.2608 69.8565 86.0917 69.7438C86.0071 69.7015 85.9789 69.5606 86.0212 69.4197C86.0635 69.2928 85.993 69.3492 85.8521 69.5465C85.7253 69.7438 85.3307 70.2511 84.9925 70.6739C84.6542 71.0967 84.316 71.5336 84.2315 71.6322C84.1187 71.7731 86.8527 71.8013 97.9436 71.7731L111.782 71.7309L112.262 70.4766C112.529 69.8002 112.783 68.9828 112.825 68.6869L112.924 68.1372H111.881C111.303 68.1372 105.413 68.1091 98.775 68.0668C88.1351 68.0104 86.6836 68.0245 86.6131 68.2077ZM87.0923 68.3345C87.0923 68.3768 87.0359 68.4473 86.9513 68.4896C86.8809 68.5318 86.8104 68.5037 86.8104 68.4332C86.8104 68.3486 86.8809 68.2782 86.9513 68.2782C87.0359 68.2782 87.0923 68.3064 87.0923 68.3345Z" fill="url(#paint10_linear_4007_475)"/>
<path d="M5.65114 70.4765C5.65114 70.6315 5.69342 70.6738 5.7357 70.5611C5.77797 70.4624 5.76388 70.3356 5.7216 70.2933C5.67933 70.2369 5.63705 70.3215 5.65114 70.4765Z" fill="white" fill-opacity="0.56"/>
<path d="M10.1889 74.3099C9.82252 74.3662 9.17426 74.9863 9.00515 75.4373C8.68102 76.2828 9.03334 77.2693 9.8648 77.8894C10.203 78.1431 10.7104 78.1431 21.3362 78.1431C29.6931 78.1431 34.1041 78.2699 34.245 78.1431C34.4282 78.0022 32.8216 77.7907 32.568 77.6921C32.3848 77.6216 32.272 77.4666 32.272 77.2552C32.272 77.072 32.1029 76.7479 31.9056 76.5365C31.5392 76.1842 31.1869 76.0292 31.356 76.311C31.3983 76.3815 31.2996 76.4519 31.1305 76.4519C30.9051 76.4519 30.8487 76.3815 30.9051 76.1701C30.9473 76.0151 30.9191 75.8882 30.8346 75.8882C30.7641 75.8882 30.75 75.8178 30.8064 75.7332C30.8628 75.6205 30.7923 75.6064 30.595 75.6768C30.2286 75.7896 29.7354 75.4232 29.7354 75.0145C29.7354 74.8736 29.6649 74.7608 29.5803 74.7608C29.5099 74.7608 29.4817 74.6904 29.524 74.6199C29.5663 74.5353 29.5663 74.479 29.4958 74.4649C29.4394 74.4649 30.7923 74.2447 30.595 74.2165C30.1018 74.1601 10.5694 74.2535 10.1889 74.3099ZM31.8915 77.8189C31.7929 77.8471 31.6238 77.8471 31.5392 77.8189C31.4406 77.7766 31.511 77.7485 31.7083 77.7485C31.9056 77.7485 31.9761 77.7766 31.8915 77.8189Z" fill="url(#paint11_linear_4007_475)"/>
<path d="M28.696 74.1971C29.5839 75.3668 30.7923 77.2992 31.4969 77.8629L34.2873 78.1431L35.7106 78.129C36.4857 78.1149 37.5004 78.0726 37.9373 78.0162L38.7546 77.9317L38.2191 77.5794C37.3172 76.9875 34.4564 74.8031 34.1886 74.4931C33.9491 74.2253 33.7659 74.1971 32.2439 74.1971H30.5668H28.696Z" fill="url(#paint12_linear_4007_475)"/>
<path d="M1.30313 61.5928C0.936721 61.6492 0.288462 62.2693 0.11935 62.7202C-0.204779 63.5658 0.147536 64.5523 0.978999 65.1723C1.31722 65.426 1.82455 65.426 12.4504 65.426C20.8073 65.426 25.2183 65.5529 25.3592 65.4261C25.5424 65.2851 23.9358 65.0737 23.6822 64.9751C23.499 64.9046 23.3862 64.7496 23.3862 64.5382C23.3862 64.355 23.2171 64.0308 23.0198 63.8195C22.6534 63.4671 22.3011 63.3121 22.4702 63.594C22.5125 63.6644 22.4138 63.7349 22.2447 63.7349C22.0192 63.7349 21.9629 63.6644 22.0192 63.453C22.0615 63.298 22.0333 63.1712 21.9488 63.1712C21.8783 63.1712 21.8642 63.1007 21.9206 63.0162C21.977 62.9034 21.9065 62.8893 21.7092 62.9598C21.3428 63.0725 20.8496 62.7061 20.8496 62.2975C20.8496 62.1565 20.7791 62.0438 20.6945 62.0438C20.6241 62.0438 20.5959 61.9733 20.6382 61.9029C20.6805 61.8183 20.6805 61.7619 20.61 61.7478C20.5536 61.7478 21.9065 61.5277 21.7092 61.4995C21.216 61.4431 1.68363 61.5365 1.30313 61.5928ZM23.0057 65.1019C22.9071 65.1301 22.738 65.1301 22.6534 65.1019C22.5548 65.0596 22.6252 65.0314 22.8225 65.0314C23.0198 65.0314 23.0903 65.0596 23.0057 65.1019Z" fill="url(#paint13_linear_4007_475)"/>
<path d="M19.8102 61.4803C20.6981 62.65 21.9065 64.5824 22.6111 65.1461L25.4015 65.4262L26.8248 65.4121C26.388 65.4685 27.5999 65.398 26.8248 65.4121L27.692 65.4262C26.79 64.8343 25.5706 62.0863 25.3028 61.7762C25.0633 61.5085 24.8801 61.4803 23.3581 61.4803H21.681H19.8102Z" fill="url(#paint14_linear_4007_475)"/>
<path d="M80.3278 75.1553C79.8205 75.6908 78.8199 76.5223 78.0871 77.0155L76.7483 77.9315L77.312 78.0302C77.6079 78.0865 85.8944 78.1288 95.7169 78.1429C109.119 78.157 113.657 78.1147 113.896 77.9879C114.545 77.6638 115.461 76.6209 114.925 76.8182C114.812 76.8746 114.714 76.9591 114.714 77.0296C114.714 77.1001 114.615 77.1564 114.502 77.1564C114.206 77.1564 114.235 76.7759 114.545 76.6068C114.742 76.4941 114.686 76.4659 114.263 76.4518C113.826 76.4518 113.727 76.3954 113.727 76.17C113.727 75.9868 113.629 75.8881 113.445 75.8881C113.206 75.8881 113.164 75.7895 113.164 75.3385C113.164 75.0285 113.093 74.7466 112.994 74.7184C112.854 74.662 112.868 74.6057 113.023 74.4929C113.178 74.3802 109.753 74.3379 101.326 74.3379C94.7727 74.3379 87.5855 74.3097 85.3307 74.2675L81.2438 74.197L80.3278 75.1553Z" fill="url(#paint15_linear_4007_475)"/>
<path d="M114.319 74.4931C114.347 74.5917 114.488 74.6763 114.615 74.7045C114.939 74.7467 114.911 74.6622 114.559 74.4649C114.319 74.3521 114.277 74.3521 114.319 74.4931Z" fill="white" fill-opacity="0.56"/>
<path d="M114.009 76.0151C114.009 76.0997 114.066 76.1983 114.15 76.2406C114.235 76.2829 114.249 76.2265 114.206 76.1138C114.108 75.8601 114.009 75.8178 114.009 76.0151Z" fill="white" fill-opacity="0.56"/>
<path d="M42.1369 80.3837C42.0241 80.4683 41.094 80.5388 40.023 80.5388C38.9801 80.5388 37.7963 80.581 37.3877 80.6233L36.6689 80.722L37.0072 81.0602C37.3313 81.3843 37.3595 81.6662 37.0635 81.6662C36.9931 81.6662 36.5985 81.4689 36.2039 81.2293L35.4711 80.8065L26.0854 80.6938C20.9275 80.6374 16.6715 80.6092 16.6434 80.6233C16.4179 80.8065 19.0673 84.4847 19.4196 84.4847C19.5464 84.4847 27.7483 84.4847 37.6272 84.4847C47.5061 84.4988 66.8271 84.4988 80.5392 84.4988L105.497 84.4847L106.413 83.1741C107.4 81.793 107.992 80.8206 107.907 80.7361C107.879 80.7079 100.057 80.6797 90.5308 80.6797C76.4946 80.6656 73.1406 80.6233 72.8728 80.4824C72.5628 80.3133 72.2668 80.3837 69.9134 81.187C65.7138 82.6245 62.2047 83.2023 57.7797 83.2164C52.9318 83.2164 48.8027 82.4976 44.9554 80.9615C43.4193 80.3415 42.4751 80.1583 42.1369 80.3837Z" fill="url(#paint16_linear_4007_475)"/>
<path d="M20.8571 87.2046C20.8571 87.3173 23.7179 90.4459 24.1265 90.7982C24.2956 90.9391 31.9902 90.9673 62.4161 90.9673H100.508L101.537 89.8681C102.467 88.8816 103.51 87.6414 103.764 87.2046C103.848 87.0777 94.35 87.0495 62.3598 87.0636C39.5297 87.0777 20.8571 87.1482 20.8571 87.2046Z" fill="url(#paint17_linear_4007_475)"/>
<path d="M13.543 88.1206C12.782 88.5011 12.486 89.0084 12.4297 90.0231C12.4015 90.7136 12.4437 90.9955 12.6692 91.3619C13.8389 93.2221 16.6292 92.4047 16.6292 90.2063C16.6292 88.4588 15.0086 87.3596 13.543 88.1206Z" fill="white" fill-opacity="0.56"/>
<path d="M110.26 89.1916C109.288 89.6285 108.922 90.8263 109.443 91.8269C109.711 92.3624 110.5 92.7148 111.134 92.602C111.754 92.4752 112.6 91.531 112.6 90.9673C112.6 89.6003 111.388 88.6843 110.26 89.1916Z" fill="white" fill-opacity="0.56"/>
<path d="M94.5331 93.4336C94.4909 93.4758 79.285 93.5181 60.7532 93.5322C42.2073 93.5322 27.0578 93.5886 27.086 93.6449C27.1705 93.8563 28.8757 95.2656 30.3555 96.3366L31.8775 97.45H62.4866C90.7281 97.45 93.1098 97.4359 93.4339 97.2104C94.2513 96.6749 95.4069 95.7588 96.5202 94.8005C97.1685 94.2509 97.7463 93.7859 97.8167 93.7859C97.8872 93.7859 97.9436 93.6872 97.9436 93.5745C97.9436 93.4054 97.6617 93.3631 96.2806 93.3631C95.3646 93.3631 94.5754 93.3913 94.5331 93.4336Z" fill="url(#paint18_linear_4007_475)"/>
<path d="M102.101 98.3236C100.959 98.7323 100.283 99.7047 100.297 100.903C100.311 103.073 102.467 104.285 104.342 103.171C105.215 102.664 105.779 101.565 105.638 100.663C105.342 98.8309 103.707 97.7599 102.101 98.3236Z" fill="white" fill-opacity="0.56"/>
<path d="M24.1406 98.5349C23.9715 98.5631 23.6614 98.7886 23.4642 99.0282C23.1823 99.3664 23.1118 99.5919 23.14 100.043C23.1682 100.508 23.2669 100.663 23.6755 100.945C24.0279 101.184 24.2815 101.255 24.5916 101.198C25.8881 100.931 26.1981 99.1268 25.0143 98.6477C24.7466 98.5349 24.507 98.4504 24.4929 98.4504C24.4647 98.4645 24.3097 98.5068 24.1406 98.5349Z" fill="white" fill-opacity="0.56"/>
<path d="M36.373 100.085C36.0911 100.142 36.3589 100.311 37.6413 100.931C44.3494 104.144 50.1837 105.962 56.5113 106.822C58.8789 107.146 62.5852 107.244 64.8118 107.047C72.5346 106.356 77.3402 105.243 83.2872 102.763C86.1058 101.579 88.5438 100.409 88.882 100.071C88.9666 99.9866 36.8521 100.001 36.373 100.085Z" fill="url(#paint19_linear_4007_475)"/>
<path d="M93.293 105.299C92.4193 105.412 92.067 106.032 92.4616 106.793C92.7152 107.258 92.8561 107.315 94.0117 107.315C94.9419 107.315 95.111 107.272 95.3787 106.991C95.8015 106.54 95.7733 105.976 95.3224 105.553C94.9419 105.201 94.5754 105.159 93.293 105.299Z" fill="white" fill-opacity="0.56"/>
<defs>
<linearGradient id="paint0_linear_4007_475" x1="82.1502" y1="52.0518" x2="82.1502" y2="0.388763" gradientUnits="userSpaceOnUse">
<stop stop-color="white"/>
<stop offset="1" stop-color="#393939"/>
</linearGradient>
<linearGradient id="paint1_linear_4007_475" x1="48.4745" y1="53.1287" x2="48.4745" y2="2.24141" gradientUnits="userSpaceOnUse">
<stop stop-color="#03BDB7"/>
<stop offset="1" stop-color="#524499"/>
</linearGradient>
<linearGradient id="paint2_linear_4007_475" x1="35.5134" y1="71.1495" x2="82.7059" y2="26.335" gradientUnits="userSpaceOnUse">
<stop stop-color="white"/>
<stop offset="1" stop-color="#4A4A4A"/>
</linearGradient>
<linearGradient id="paint3_linear_4007_475" x1="98.6975" y1="40.5044" x2="98.6975" y2="20.5042" gradientUnits="userSpaceOnUse">
<stop stop-color="#03BDB7"/>
<stop offset="1" stop-color="#524499"/>
</linearGradient>
<linearGradient id="paint4_linear_4007_475" x1="104.849" y1="46.8574" x2="104.849" y2="42.9115" gradientUnits="userSpaceOnUse">
<stop stop-color="white"/>
<stop offset="1" stop-color="#393939"/>
</linearGradient>
<linearGradient id="paint5_linear_4007_475" x1="105.949" y1="52.9878" x2="105.949" y2="49.2526" gradientUnits="userSpaceOnUse">
<stop stop-color="#03BDB7"/>
<stop offset="1" stop-color="#524499"/>
</linearGradient>
<linearGradient id="paint6_linear_4007_475" x1="105.469" y1="59.3293" x2="105.469" y2="55.5067" gradientUnits="userSpaceOnUse">
<stop stop-color="white"/>
<stop offset="1" stop-color="#393939"/>
</linearGradient>
<linearGradient id="paint7_linear_4007_475" x1="14.924" y1="59.3999" x2="14.924" y2="55.5907" gradientUnits="userSpaceOnUse">
<stop stop-color="white"/>
<stop offset="1" stop-color="#393939"/>
</linearGradient>
<linearGradient id="paint8_linear_4007_475" x1="20.843" y1="71.7368" x2="20.843" y2="67.9276" gradientUnits="userSpaceOnUse">
<stop stop-color="white"/>
<stop offset="1" stop-color="#393939"/>
</linearGradient>
<linearGradient id="paint9_linear_4007_475" x1="101.361" y1="65.6597" x2="101.361" y2="61.7956" gradientUnits="userSpaceOnUse">
<stop stop-color="#03BDB7"/>
<stop offset="1" stop-color="#524499"/>
</linearGradient>
<linearGradient id="paint10_linear_4007_475" x1="98.5761" y1="71.783" x2="98.5761" y2="68.0375" gradientUnits="userSpaceOnUse">
<stop stop-color="white"/>
<stop offset="1" stop-color="#393939"/>
</linearGradient>
<linearGradient id="paint11_linear_4007_475" x1="20.831" y1="78.1431" x2="20.831" y2="74.2931" gradientUnits="userSpaceOnUse">
<stop stop-color="#03BDB7"/>
<stop offset="1" stop-color="#524499"/>
</linearGradient>
<linearGradient id="paint12_linear_4007_475" x1="34.6607" y1="78.1431" x2="34.6607" y2="74.1971" gradientUnits="userSpaceOnUse">
<stop stop-color="#03BDB7"/>
<stop offset="1" stop-color="#524499"/>
</linearGradient>
<linearGradient id="paint13_linear_4007_475" x1="11.9452" y1="65.4261" x2="11.9452" y2="61.576" gradientUnits="userSpaceOnUse">
<stop stop-color="#03BDB7"/>
<stop offset="1" stop-color="#524499"/>
</linearGradient>
<linearGradient id="paint14_linear_4007_475" x1="25.7749" y1="65.4262" x2="25.7749" y2="61.4803" gradientUnits="userSpaceOnUse">
<stop stop-color="#03BDB7"/>
<stop offset="1" stop-color="#524499"/>
</linearGradient>
<linearGradient id="paint15_linear_4007_475" x1="95.9173" y1="78.1455" x2="95.9173" y2="74.197" gradientUnits="userSpaceOnUse">
<stop stop-color="#03BDB7"/>
<stop offset="1" stop-color="#524499"/>
</linearGradient>
<linearGradient id="paint16_linear_4007_475" x1="62.2724" y1="84.4988" x2="62.2724" y2="80.291" gradientUnits="userSpaceOnUse">
<stop stop-color="white"/>
<stop offset="1" stop-color="#393939"/>
</linearGradient>
<linearGradient id="paint17_linear_4007_475" x1="62.3107" y1="90.9673" x2="62.3107" y2="87.0603" gradientUnits="userSpaceOnUse">
<stop stop-color="#03BDB7"/>
<stop offset="1" stop-color="#524499"/>
</linearGradient>
<linearGradient id="paint18_linear_4007_475" x1="62.5147" y1="97.45" x2="62.5147" y2="93.3631" gradientUnits="userSpaceOnUse">
<stop stop-color="white"/>
<stop offset="1" stop-color="#393939"/>
</linearGradient>
<linearGradient id="paint19_linear_4007_475" x1="62.5767" y1="107.148" x2="62.5767" y2="100.014" gradientUnits="userSpaceOnUse">
<stop stop-color="#03BDB7"/>
<stop offset="1" stop-color="#524499"/>
</linearGradient>
</defs>
</svg>
