<svg width="444" height="143" viewBox="0 0 444 143" fill="none" xmlns="http://www.w3.org/2000/svg">
<path d="M128.431 1.58548C127.717 2.33708 126.796 3.20143 126.42 3.50207L125.725 4.04699L125.668 10.3793L125.593 16.7115L123.883 18.459L122.173 20.2065L122.267 17.4819C122.361 15.0016 122.061 8.14323 121.854 7.93654C121.816 7.89896 121.516 8.06807 121.196 8.33114C120.67 8.7821 119.58 9.21427 118.96 9.21427C118.754 9.21427 118.735 9.66524 118.848 11.6946C119.054 15.4902 119.017 19.2106 118.754 21.7097L118.509 23.9645L106.653 35.7647C100.133 42.2661 92.0904 50.1204 88.7834 53.2208C85.4763 56.3211 81.7747 59.8913 80.5721 61.1502C79.3695 62.3903 78.3736 63.3111 78.3548 63.1983C78.3548 62.8413 77.3402 62.3903 76.5698 62.3903C75.48 62.3903 74.2774 63.2359 73.6761 64.4009C73.3567 65.021 73.4318 66.7121 73.8264 67.5764C74.6532 69.3991 77.1899 69.8876 79.1816 68.5723C80.2527 67.8583 80.7976 66.9939 80.7976 65.998C80.7976 65.3592 80.9103 65.1525 81.5116 64.6452C81.8874 64.3069 83.6537 62.6346 85.4011 60.9059C87.1674 59.196 90.4181 56.0017 92.6353 53.8408C94.8526 51.68 102.068 44.5397 108.645 38.0008C118.829 27.8917 120.689 26.1254 121.046 26.2193C121.29 26.2757 123.808 26.3885 126.645 26.5012L131.813 26.6703L132.564 26.1818C134.162 25.1295 138.089 21.8224 139.855 20.0374C140.87 19.0227 142.223 17.7638 142.861 17.2564C144.214 16.1666 145.68 14.8325 145.586 14.7762C145.548 14.7386 143.124 14.6258 140.174 14.4943C134.65 14.2688 133.598 14.1749 133.598 13.9118C133.598 13.8179 135.176 12.2395 137.112 10.3981C142.129 5.62536 142.918 4.83617 143.275 4.15973C143.726 3.2578 143.519 2.6941 142.655 2.46862C141.227 2.05523 140.945 2.14918 139.536 3.61481C138.803 4.34763 137.318 5.71931 136.247 6.65881C135.157 7.59832 133.147 9.47733 131.775 10.849L129.276 13.3293V10.3981C129.276 8.80089 129.408 6.09511 129.577 4.38521C129.727 2.6941 129.84 1.05936 129.802 0.758714C129.746 0.23259 129.727 0.23259 128.431 1.58548ZM138.54 17.4068C139.874 17.5195 140.832 18.0268 140.456 18.4026C139.893 18.9663 131.08 18.9663 129.332 18.4026C128.6 18.1584 128.581 18.1208 129.145 17.5195L129.558 17.0685L133.41 17.1813C135.533 17.2564 137.826 17.3504 138.54 17.4068ZM131.587 21.597C134.218 21.7285 134.782 21.8037 135.101 22.0855C135.646 22.5741 135.571 22.8183 134.706 23.2881C134.124 23.6263 133.767 23.7015 133.26 23.6075C132.865 23.5511 130.667 23.4008 128.337 23.3069C126.025 23.1941 124.09 23.0626 124.034 23.025C123.996 22.9686 124.297 22.6116 124.691 22.1983C125.424 21.4654 125.424 21.4654 126.927 21.4466C127.754 21.4466 129.84 21.5218 131.587 21.597Z" fill="url(#paint0_linear_4008_511)"/>
<path d="M78.5428 2.93838C75.029 3.10749 68.8095 4.12215 64.732 5.1744C55.0927 7.69228 45.1151 12.8596 38.0125 18.9851C32.1687 24.0021 27.9597 29.1882 22.8676 37.5874C18.6398 44.5961 15.6898 52.4128 14.0738 60.9811C13.5853 63.6493 12.9652 68.6662 12.9652 70.1882V70.752H21.8154H30.6655L30.534 69.9252C30.2709 68.1589 30.4212 62.1649 30.797 59.6658C31.4171 55.4568 32.9579 50.1768 34.6678 46.306C36.0771 43.0929 40.1733 37.2304 43.2925 33.9045C48.084 28.7936 55.3933 24.19 62.1578 21.9728C67.6445 20.2065 71.3274 19.5489 76.1001 19.5489C84.9502 19.5489 93.1239 21.6346 100.433 25.806C102.651 27.0649 105.262 28.7936 106.484 29.8083C107.01 30.2592 107.498 30.635 107.574 30.635C107.649 30.635 108.588 29.7895 109.678 28.756C110.749 27.7226 112.534 26.1254 113.643 25.1859L115.672 23.5136L115.992 20.7326C116.33 17.745 116.386 15.8848 116.179 12.6905L116.067 10.6611L114.15 9.75919C107.066 6.41455 98.6858 4.0282 91.1322 3.20144C89.2719 2.99475 80.9855 2.82563 78.5428 2.93838ZM96.1115 10.2102C96.431 11.0933 96.788 11.9388 96.9195 12.0704C97.051 12.2019 97.8027 12.4838 98.6106 12.6905C99.9635 13.0475 100.057 13.1038 100.114 13.6112C100.151 13.9118 100.095 14.2312 100.001 14.3252C99.8884 14.4379 99.1555 14.6446 98.3476 14.8137L96.9007 15.1332L96.3746 16.6176C96.0928 17.4256 95.7357 18.2148 95.5666 18.3839C95.3036 18.6469 95.2472 18.6469 94.909 18.3463C94.7211 18.1584 94.4016 17.4444 94.2325 16.7491C94.0634 16.0727 93.8755 15.3962 93.7816 15.2647C93.7064 15.1332 92.8984 14.8889 91.9589 14.701C90.2866 14.3816 90.2866 14.3816 90.2302 13.7803C90.1551 13.085 90.4181 12.8971 91.6959 12.6905C93.3306 12.4274 93.65 12.2019 94.0258 10.9806C94.4956 9.47734 95.0593 8.42509 95.3224 8.51904C95.4539 8.55662 95.8109 9.30823 96.1115 10.2102ZM70.2563 11.9576C70.9328 12.822 70.7073 13.9494 69.7678 14.4567C68.6216 15.058 67.4942 13.0663 68.3209 11.8825C68.7343 11.2812 69.749 11.3188 70.2563 11.9576ZM53.3828 17.4631C54.2847 18.3839 54.0216 19.6052 52.8003 20.1126C52.2742 20.338 52.1802 20.3192 51.748 19.9059C51.034 19.2482 50.8837 18.7033 51.1843 17.9705C51.6729 16.8055 52.5372 16.6176 53.3828 17.4631ZM107.574 17.6886C109.039 18.3651 108.983 19.5301 107.461 20.5071C106.502 21.1084 106.484 21.1084 106.183 20.7514C106.014 20.5635 105.657 20.2441 105.375 20.0562C104.98 19.8119 104.849 19.5864 104.849 19.1167C104.849 18.3839 105.112 18.0081 105.882 17.5947C106.615 17.2189 106.578 17.2189 107.574 17.6886ZM40.7558 26.9897C41.5826 28.042 41.0001 29.5076 39.7599 29.5076C38.7829 29.5076 37.9373 28.3614 38.3507 27.5722C38.9708 26.3697 40.0606 26.1066 40.7558 26.9897ZM30.1206 40.8569C31.2104 41.8339 31.3983 42.2849 31.0037 43.0365C30.9098 43.2244 30.5716 43.4311 30.2521 43.5063C29.8763 43.5814 29.5757 43.8257 29.4066 44.1827C29.1811 44.5961 28.9744 44.7276 28.561 44.7276C28.1101 44.7276 28.0161 44.6337 27.9597 44.2203C27.9222 43.8445 27.7718 43.6754 27.3772 43.5814C26.5881 43.3747 26.3062 43.0553 26.3062 42.4164C26.3062 41.8152 26.9263 40.9696 27.3772 40.9696C27.5276 40.9696 27.7343 40.7253 27.8282 40.4247C28.0161 39.8798 28.4671 39.6167 28.8429 39.8234C28.9556 39.861 29.5193 40.3307 30.1206 40.8569Z" fill="url(#paint1_linear_4008_511)"/>
<path d="M32.3378 7.37289C29.4629 8.91368 30.6467 13.0475 33.8786 12.7281C35.4946 12.5778 36.5468 11.4691 36.5468 9.87198C36.5468 7.63596 34.3108 6.32065 32.3378 7.37289Z" fill="white" fill-opacity="0.56"/>
<path d="M22.0784 18.1584C20.8947 18.7597 20.2746 20.2065 20.7255 21.2964C21.3456 22.7808 22.9052 23.3445 24.2017 22.5553C26.0807 21.4091 25.9116 18.9664 23.9199 18.1208C23.1495 17.7826 22.7737 17.8014 22.0784 18.1584Z" fill="white" fill-opacity="0.56"/>
<path d="M73.4694 22.856C73.2064 22.8936 72.2481 23.0251 71.3086 23.1378C67.325 23.6076 62.3832 25.1484 58.1555 27.2529C53.1761 29.7144 49.5308 32.3638 45.9419 36.1406C39.1962 43.2245 35.4382 51.1915 34.292 60.7933C33.1646 70.395 35.5134 80.4853 40.6806 88.2269C45.9419 96.1187 53.9841 102.282 62.7778 105.213C67.8324 106.885 72.8493 107.599 78.167 107.43C81.8122 107.318 83.5785 107.055 87.4681 106.096C94.909 104.255 99.8508 101.756 104.98 97.2837C109.772 93.0747 112.966 88.9785 115.484 83.736C119.242 75.9005 120.52 66.4115 118.923 58.1626C117.57 51.1539 114.451 43.8821 111.219 40.2181L110.655 39.5604L109.64 40.6878C109.077 41.3079 108.607 41.8904 108.607 41.9656C108.607 42.0407 109.096 42.8863 109.697 43.8446C111.463 46.6443 112.327 48.3166 113.323 50.9472C114.714 54.6489 115.766 59.1022 116.048 62.4656L116.179 64.1379L114.996 64.0252C114.338 63.95 112.572 63.8936 111.05 63.8936H108.288L108.156 62.3341C107.893 58.933 106.653 54.6301 105.037 51.5297C104.003 49.5568 102.763 47.6402 102.557 47.7153C102.481 47.7341 101.636 48.5797 100.678 49.5756C99.7192 50.5714 99.2495 51.1163 99.6441 50.7781C100.039 50.4399 100.396 50.1768 100.433 50.1768C100.602 50.1768 102.218 53.3524 102.782 54.7804C103.628 56.8849 104.605 60.4926 104.755 61.977C104.83 62.6723 104.924 63.3863 104.98 63.5742C105.056 63.8748 104.83 63.8936 101.523 63.8561L97.9905 63.7997L97.8402 62.4844C97.6523 60.6242 96.9007 58.1439 95.9988 56.3588L95.2284 54.818L94.007 56.0394L92.7669 57.2795L93.3494 58.67C94.0822 60.4362 94.6459 62.6723 94.7962 64.4573C95.0217 67.0316 94.007 71.203 92.4287 74.247C91.5831 75.8629 88.9337 78.8506 87.4305 79.884C85.3824 81.2933 81.831 82.6838 79.5386 82.9844L78.5428 83.1159V80.0156V76.9152L79.7829 76.6146C83.3342 75.7314 86.04 73.3263 87.8815 69.3991C88.5203 68.0463 88.5767 67.7832 88.6518 65.829C88.7082 64.1943 88.6518 63.499 88.4076 62.6723C88.2197 62.1086 88.0506 61.6388 88.0318 61.6388C87.9942 61.6388 87.3741 62.2589 86.6413 62.9917L85.3072 64.3634V65.5096C85.3072 68.61 83.5409 71.3909 80.7412 72.725C77.3214 74.3785 73.6385 73.7021 71.0643 70.9587C69.749 69.5495 69.1665 68.2342 69.0162 66.2988C68.7719 63.3675 69.9369 60.6617 72.1165 59.1585C73.958 57.8996 76.6637 57.3171 78.9561 57.6929L80.2527 57.9184L81.2485 56.8661C81.8122 56.2836 82.3572 55.8139 82.4699 55.8139C82.5826 55.8139 82.6766 55.7387 82.6766 55.6448C82.6766 55.3817 80.8727 54.6865 79.6514 54.461L78.5428 54.2731V52.7323C78.5428 51.9055 78.5991 50.3835 78.6743 49.3689L78.787 47.5274L79.5574 47.6402C82.1129 48.0348 84.255 48.8239 86.5286 50.252L87.4681 50.8345L88.727 49.6131L90.0047 48.373L88.0318 47.2832C84.8374 45.5169 81.4928 44.3519 79.5574 44.3519H78.7494L78.6931 40.6878L78.6367 37.0237H79.1065C80.0084 37.0237 82.0377 37.4183 84.0858 37.982C86.5849 38.6773 90.2302 40.406 93.0863 42.285L95.1532 43.6379L95.529 43.093C95.9988 42.4541 96.5813 41.8904 97.0698 41.5898C97.4268 41.3831 97.4268 41.3831 97.051 41.0073C95.9048 39.8423 90.8503 36.9862 87.9002 35.8212C85.6266 34.938 80.9291 33.8294 79.3507 33.8294C79.0313 33.8294 78.6931 33.7355 78.6179 33.6227C78.5615 33.51 78.5615 31.7625 78.6367 29.752L78.7682 26.1067L80.0272 26.2194C87.6184 26.9334 94.7211 29.6204 100.734 34.0737C102.951 35.6896 102.726 35.6709 104.079 34.318L105.244 33.1342L103.966 32.1947C102.03 30.7666 98.4039 28.5494 96.2055 27.4408C92.2971 25.4866 88.0318 24.0773 83.2967 23.213C81.7183 22.9124 74.6156 22.6493 73.4694 22.856ZM75.3484 29.8835V33.8294H74.2022C73.5822 33.8294 72.2481 33.9985 71.2522 34.2052C63.3979 35.8212 56.3516 40.1617 51.7856 46.2309C48.3282 50.8533 45.9043 56.9601 45.3782 62.522L45.2279 63.8936H41.3759H37.5239L37.6554 62.2401C38.3131 54.0664 41.5826 45.9678 46.5056 40.3496C51.8044 34.2992 58.3809 30.015 66.0473 27.6663C68.4712 26.9335 69.4295 26.7268 72.6239 26.3134C74.0707 26.1255 75.2733 25.9564 75.3109 25.9564C75.3296 25.9376 75.3484 27.7038 75.3484 29.8835ZM75.386 40.5939L75.3296 44.3519H74.5217C74.0895 44.3519 73.056 44.521 72.2293 44.7277C66.0097 46.3249 61.1807 50.0265 58.2118 55.4757C57.0656 57.5989 56.1073 60.3423 55.7691 62.5032L55.5624 63.8748L52.1614 63.9312C50.2824 63.9688 48.7416 63.9688 48.704 63.95C48.6664 63.95 48.7416 63.2736 48.8543 62.4656C49.4744 57.9935 51.0716 53.1833 52.913 50.2332C56.5583 44.4271 62.045 40.2556 68.6779 38.1887C71.5528 37.2868 73.2627 36.9298 74.7847 36.8546L75.4424 36.8358L75.386 40.5939ZM75.4988 51.06L75.4424 54.5737L74.1834 54.7992C70.8764 55.4193 67.419 58.3881 66.3292 61.5449C65.4836 64.0064 65.4836 67.2759 66.3292 69.7937C67.4378 73.1196 70.557 75.8442 74.0895 76.6146L75.4424 76.8964L75.4236 79.9968C75.4048 81.6879 75.3484 83.1159 75.3109 83.1535C75.1793 83.285 72.4923 82.665 71.0455 82.1389C69.1477 81.4812 66.254 79.8652 65.0514 78.813C62.5711 76.6333 60.3727 73.1196 59.5459 69.9816C59.0574 68.1026 58.8695 64.2694 59.1701 62.4656C59.4144 61.0375 60.3539 57.9935 60.8237 57.054C61.8195 55.0999 64.3562 52.1686 66.2352 50.8345C68.8095 49.0119 72.4735 47.6026 74.8411 47.565L75.5363 47.5462L75.4988 51.06ZM45.4345 67.7832C46.0546 76.5582 50.5455 84.7319 57.7797 90.2374C60.166 92.0413 65.1266 94.5779 68.1142 95.4986C69.5235 95.9308 73.2627 96.5885 74.2962 96.5885H75.4424L75.386 100.346C75.3484 103.127 75.2733 104.105 75.1042 104.105C74.9726 104.105 73.8076 103.973 72.4923 103.823C68.3021 103.334 62.9094 101.737 59.2829 99.9331C50.4139 95.4798 43.1797 87.6632 39.929 78.9445C39.0271 76.5206 38.0312 72.1425 37.8621 69.8125C37.8058 69.0985 37.7118 68.159 37.6742 67.7456L37.5991 66.994L41.4886 67.0316L45.3782 67.088L45.4345 67.7832ZM116.104 67.2007C116.236 67.3322 115.766 71.5036 115.447 73.1008C115.014 75.1865 113.925 78.9445 113.305 80.5417C111.106 86.0472 106.935 91.5527 101.974 95.4235C97.0698 99.2755 92.222 101.53 85.5703 103.052C83.0712 103.635 78.9937 104.255 78.8434 104.086C78.8058 104.048 78.7307 102.395 78.6743 100.422L78.5615 96.8139L79.6326 96.6824C80.9667 96.5321 84.9878 95.5926 86.6225 95.0477C88.6143 94.4088 92.7481 92.3607 94.7586 91.0078C99.381 87.945 104.041 82.1764 106.239 76.8212C107.123 74.6792 107.968 71.3909 108.25 68.9482L108.475 66.994L112.252 67.0504C114.319 67.088 116.067 67.1443 116.104 67.2007ZM55.8631 68.3469C56.1073 71.2406 57.6293 75.0362 59.6587 77.8923C60.7109 79.3767 63.0785 81.6127 64.7696 82.7401C67.4942 84.544 71.4965 86.1036 74.1647 86.3666L75.3484 86.4982V88.039L75.1042 91.6818C76.2691 91.6818 74.7096 91.7382 75.1042 91.6818C73.958 91.663 71.2381 90.9067 71.2381 90.9067C71.0502 90.9513 69.0772 90.6765 67.0103 89.8498C65.0561 89.0606 61.439 87.3437 60.1049 86.2915C57.1375 83.9564 53.3122 79.0264 51.5084 76.2951C50.2119 74.3785 49.3805 70.9587 49.0423 68.967C48.9295 68.2905 48.798 67.5953 48.7416 67.4074C48.6477 67.1067 48.8919 67.088 52.199 67.088H55.7503L55.8631 68.3469ZM104.774 68.7791C104.642 70.5641 103.966 73.2323 103.346 74.3785C103.158 74.7731 102.989 74.9422 102.97 74.7919C102.97 74.6416 102.444 75.318 101.786 76.2951C98.2536 81.6127 94.909 84.9574 90.2866 87.8135C87.8814 89.3167 82.6954 90.9326 80.0648 91.0078C79.0125 91.0454 78.8246 90.989 78.7682 90.7072C78.6555 90.1434 78.8998 89.4858 79.2568 89.3918C79.5011 89.3167 79.4635 89.2979 79.1628 89.2791C78.7494 89.2603 78.7307 89.1852 78.7307 87.8886V86.517L80.3466 86.2915C82.0941 86.0284 85.2508 84.9762 87.1862 83.9991C90.0423 82.571 93.3306 79.3767 95.1908 76.2388C96.337 74.3222 97.4644 71.0715 97.7651 68.8542L97.9718 67.2946L99.7756 67.2195C100.753 67.2007 102.312 67.1443 103.233 67.1255L104.905 67.088L104.774 68.7791Z" fill="url(#paint2_linear_4008_511)"/>
<path d="M70.4254 39.9738C70.5569 40.0301 70.726 40.0114 70.7824 39.955C70.8576 39.8986 70.7448 39.8422 70.5381 39.861C70.3314 39.861 70.2751 39.9174 70.4254 39.9738Z" fill="white" fill-opacity="0.56"/>
<path d="M134.537 27.9856C132.903 29.3761 132.752 29.4136 129.182 29.3761C127.435 29.3385 124.936 29.2821 123.639 29.2257L121.29 29.113L120.689 29.921C119.919 30.9544 114.939 36.0466 113.981 36.7794L113.248 37.3431L114.094 38.4517C116.781 41.9655 119.148 46.6254 120.896 51.7739L121.591 53.8408L135.778 53.8972C144.139 53.9536 149.945 53.8972 149.945 53.8032C149.945 53.5402 148.743 50.064 148.066 48.3917C147.24 46.3248 144.308 40.5186 142.937 38.245C140.851 34.7688 135.759 27.2528 135.496 27.2528C135.439 27.2528 135.007 27.5722 134.537 27.9856ZM129.408 35.2762C129.633 35.6708 129.915 36.5163 130.028 37.174C130.178 37.9068 130.385 38.4141 130.573 38.5269C130.761 38.6208 131.625 38.8087 132.527 38.9778C133.429 39.1281 134.256 39.316 134.349 39.3724C134.462 39.4288 134.537 39.8046 134.537 40.218C134.537 41.0635 134.481 41.1011 132.226 41.4393C131.305 41.5709 130.535 41.7212 130.498 41.7588C130.479 41.7776 130.272 42.5292 130.047 43.3935C129.671 44.9155 129.126 45.855 128.6 45.855C128.318 45.855 127.867 44.7276 127.472 43.0553C127.153 41.5709 127.435 41.7588 124.673 41.3266C123.959 41.2326 123.263 41.0447 123.132 40.932C122.869 40.7065 122.812 39.8798 123.038 39.5227C123.113 39.3912 124.015 39.1094 125.048 38.9215C126.063 38.7148 126.965 38.4329 127.04 38.3014C127.115 38.1698 127.322 37.4934 127.51 36.7982C127.811 35.5016 128.355 34.5809 128.788 34.5809C128.919 34.5809 129.201 34.9004 129.408 35.2762ZM139.385 46.926C139.761 47.1515 139.817 47.3206 139.761 48.0535C139.705 48.8802 139.667 48.9366 138.972 49.1809C138.427 49.35 137.751 49.3876 136.473 49.3124L134.725 49.1809V48.2038C134.725 47.6401 134.819 47.1327 134.97 47.02C135.308 46.7381 137.337 46.4375 138.201 46.5502C138.615 46.6066 139.141 46.7569 139.385 46.926Z" fill="url(#paint3_linear_4008_511)"/>
<path d="M148.123 31.5743C147.258 31.9314 146.995 33.4909 147.709 34.1298C148.047 34.4304 148.404 34.4868 149.945 34.4868C151.636 34.4868 151.824 34.4492 152.275 34.0359C152.858 33.4909 152.933 32.5702 152.463 31.8562C152.162 31.4052 152.069 31.3864 150.34 31.4052C149.344 31.4052 148.348 31.4804 148.123 31.5743Z" fill="white" fill-opacity="0.56"/>
<path d="M12.4766 34.4681C11.6499 35.2949 11.6123 36.0841 12.3827 36.8545C13.1531 37.6249 13.9423 37.5873 14.769 36.7605C15.5958 35.9338 15.6334 35.1446 14.863 34.3742C14.0926 33.6038 13.3034 33.6414 12.4766 34.4681Z" fill="white" fill-opacity="0.56"/>
<path d="M122.324 57.3546C122.343 57.5237 122.963 61.8079 123.075 62.334C123.075 62.3716 130.159 62.3904 138.803 62.3904C154.474 62.3904 154.53 62.3904 155.357 61.9958C156.296 61.526 157.273 60.3047 157.273 59.5907C157.273 59.0269 156.653 57.9183 156.09 57.4674C155.714 57.1667 154.511 57.1291 139.009 57.1291C125.781 57.1291 122.324 57.1855 122.324 57.3546Z" fill="url(#paint4_linear_4008_511)"/>
<path d="M123.075 66.9751C123.075 67.7267 123.019 68.8541 122.963 69.4553L122.85 70.564H140.287H157.743L158.42 70.1318C159.66 69.3802 160.036 67.9333 159.322 66.7684C158.551 65.5094 159.66 65.5846 140.456 65.5846H123.075V66.9751Z" fill="url(#paint5_linear_4008_511)"/>
<path d="M122.662 73.965C122.455 74.0401 122.286 74.4347 122.155 75.2803C122.023 75.9379 121.779 77.009 121.572 77.6479C121.365 78.2867 121.234 78.8316 121.253 78.8504C121.272 78.8692 129.502 78.9256 139.517 78.9444L157.743 79.0195L158.532 78.5686C159.622 77.9485 160.223 76.7647 159.923 75.8628C159.81 75.5246 159.434 74.9609 159.096 74.6414L158.495 74.0589L140.738 73.965C130.967 73.9086 122.85 73.9086 122.662 73.965Z" fill="url(#paint6_linear_4008_511)"/>
<path d="M8.77497 74.3784C8.02336 74.8857 7.32812 75.9192 7.32812 76.5205C7.32812 77.3097 7.79788 78.0989 8.58706 78.6438L9.30109 79.1135H20.8758H32.4693L32.2063 78.3807C31.8305 77.2909 31.1916 74.773 31.1916 74.3784C31.1916 74.059 30.7406 74.0402 21.7777 74.0402C15.577 74.0402 12.4203 74.0966 12.4954 74.2281C12.5706 74.3596 12.439 74.3596 12.1196 74.2281C11.2741 73.9087 9.35746 74.0026 8.77497 74.3784Z" fill="url(#paint7_linear_4008_511)"/>
<path d="M5.35516 90.8279C4.60356 91.3352 3.90832 92.3687 3.90832 92.97C3.90832 93.7591 4.21366 94.3078 5.00285 94.8528L5.88129 95.563H28.7677H43.0529L41.855 94.5709C41.4792 93.4811 39.0834 91.2225 39.0834 90.8279C39.0834 90.5084 38.6325 90.4897 29.6696 90.4897C23.4688 90.4897 20.3121 90.546 20.3873 90.6776C20.4624 90.8091 20.3309 90.8091 20.0115 90.6776C19.1659 90.3581 5.93766 90.4521 5.35516 90.8279Z" fill="url(#paint8_linear_4008_511)"/>
<path d="M119.599 83.3601C119.43 83.9238 118.96 85.0888 118.566 85.9155C118.152 86.7611 117.814 87.4563 117.814 87.4563C117.814 87.4751 119.054 87.4187 120.576 87.3436C122.117 87.2684 129.032 87.212 135.947 87.212C153.008 87.2496 151.448 87.2872 151.448 86.7235C151.448 86.4792 151.655 85.6525 151.899 84.9009C152.144 84.1493 152.388 83.2661 152.426 82.9655L152.482 82.4018L136.191 82.3454L119.9 82.3078L119.599 83.3601Z" fill="url(#paint9_linear_4008_511)"/>
<path d="M115.484 90.8575C115.428 91.0078 115.428 91.2897 115.484 91.4588C115.578 91.7219 115.559 91.7406 115.409 91.534C115.259 91.3273 115.183 91.3461 115.014 91.6843C114.883 91.9098 114.864 92.0601 114.939 92.0413C115.146 91.9849 116.311 92.511 116.311 92.6614C116.311 92.8493 115.014 93.056 114.789 92.9056C114.676 92.8493 114.639 92.6614 114.695 92.4735C114.751 92.3044 114.657 92.3795 114.469 92.6426C114.3 92.9056 113.774 93.5821 113.323 94.1458C112.872 94.7095 112.421 95.292 112.309 95.4235C112.158 95.6114 115.804 95.649 130.591 95.6114L149.043 95.555L149.682 93.8827C150.039 92.9808 150.377 91.891 150.434 91.4964L150.565 90.7636H149.175C148.404 90.7636 140.55 90.726 131.7 90.6696C117.513 90.5945 115.578 90.6132 115.484 90.8575ZM116.123 91.0266C116.123 91.083 116.048 91.1769 115.935 91.2333C115.841 91.2897 115.747 91.2521 115.747 91.1582C115.747 91.0454 115.841 90.9515 115.935 90.9515C116.048 90.9515 116.123 90.989 116.123 91.0266Z" fill="url(#paint10_linear_4008_511)"/>
<path d="M7.53484 93.8824C7.53484 94.0891 7.59121 94.1455 7.64758 93.9952C7.70396 93.8636 7.68517 93.6945 7.62879 93.6381C7.57242 93.563 7.51605 93.6757 7.53484 93.8824Z" fill="white" fill-opacity="0.56"/>
<path d="M13.5853 98.9936C13.0967 99.0687 12.2324 99.8955 12.0069 100.497C11.5747 101.624 12.0445 102.939 13.1531 103.766C13.6041 104.104 14.2805 104.104 28.4483 104.104C39.5908 104.104 45.4721 104.274 45.66 104.105C45.9043 103.917 43.7622 103.635 43.424 103.503C43.1797 103.409 43.0294 103.203 43.0294 102.921C43.0294 102.676 42.8039 102.244 42.5409 101.962C42.0523 101.493 41.5826 101.286 41.8081 101.662C41.8644 101.756 41.7329 101.85 41.5074 101.85C41.2068 101.85 41.1316 101.756 41.2068 101.474C41.2631 101.267 41.2256 101.098 41.1128 101.098C41.0189 101.098 41.0001 101.004 41.0752 100.891C41.1504 100.741 41.0565 100.722 40.7934 100.816C40.3049 100.967 39.6472 100.478 39.6472 99.9331C39.6472 99.7452 39.5532 99.5948 39.4405 99.5948C39.3466 99.5948 39.309 99.5009 39.3653 99.4069C39.4217 99.2942 39.4217 99.219 39.3278 99.2003C39.2526 99.2003 41.0565 98.9067 40.7934 98.8691C40.1357 98.7939 14.0926 98.9184 13.5853 98.9936ZM42.5221 103.672C42.3906 103.71 42.1651 103.71 42.0523 103.672C41.9208 103.616 42.0148 103.578 42.2778 103.578C42.5409 103.578 42.6348 103.616 42.5221 103.672Z" fill="url(#paint11_linear_4008_511)"/>
<path d="M38.2614 98.8433C39.4452 100.403 41.0564 102.979 41.996 103.731L45.7164 104.104L47.6142 104.086C48.6477 104.067 50.0006 104.011 50.583 103.935L51.6729 103.823L50.9588 103.353C49.7563 102.564 45.9419 99.6512 45.5849 99.2378C45.2654 98.8808 45.0212 98.8433 42.9918 98.8433H40.7558H38.2614Z" fill="url(#paint12_linear_4008_511)"/>
<path d="M1.73751 82.0375C1.24896 82.1127 0.384615 82.9394 0.159134 83.5407C-0.273039 84.6681 0.196714 85.9834 1.30533 86.8102C1.7563 87.1484 2.43274 87.1484 16.6005 87.1484C27.743 87.1484 33.6244 87.3176 33.8123 87.1485C34.0565 86.9606 31.9145 86.6787 31.5762 86.5471C31.332 86.4532 31.1816 86.2465 31.1816 85.9646C31.1816 85.7204 30.9562 85.2882 30.6931 85.0063C30.2046 84.5366 29.7348 84.3299 29.9603 84.7057C30.0167 84.7997 29.8851 84.8936 29.6596 84.8936C29.359 84.8936 29.2838 84.7997 29.359 84.5178C29.4154 84.3111 29.3778 84.142 29.265 84.142C29.1711 84.142 29.1523 84.048 29.2275 83.9353C29.3026 83.785 29.2087 83.7662 28.9456 83.8601C28.4571 84.0105 27.7994 83.5219 27.7994 82.977C27.7994 82.7891 27.7055 82.6388 27.5927 82.6388C27.4988 82.6388 27.4612 82.5448 27.5176 82.4509C27.5739 82.3381 27.5739 82.263 27.48 82.2442C27.4048 82.2442 29.2087 81.9506 28.9456 81.913C28.288 81.8379 2.24484 81.9623 1.73751 82.0375ZM30.6743 86.7162C30.5428 86.7538 30.3173 86.7538 30.2046 86.7162C30.073 86.6599 30.167 86.6223 30.43 86.6223C30.6931 86.6223 30.787 86.6599 30.6743 86.7162Z" fill="url(#paint13_linear_4008_511)"/>
<path d="M26.4136 81.8874C27.5974 83.447 29.2087 86.0235 30.1482 86.7751L33.8686 87.1486L35.7664 87.1298C35.1839 87.205 36.7999 87.111 35.7664 87.1298L36.9226 87.1486C35.72 86.3594 34.0941 82.6954 33.7371 82.282C33.4177 81.925 33.1734 81.8874 31.1441 81.8874H28.908H26.4136Z" fill="url(#paint14_linear_4008_511)"/>
<path d="M107.104 100.121C106.427 100.835 105.093 101.944 104.116 102.601L102.331 103.823L103.083 103.954C103.477 104.029 114.526 104.086 127.623 104.104C145.492 104.123 151.542 104.067 151.862 103.898C152.726 103.466 153.948 102.075 153.234 102.338C153.083 102.413 152.952 102.526 152.952 102.62C152.952 102.714 152.82 102.789 152.67 102.789C152.275 102.789 152.313 102.282 152.726 102.056C152.989 101.906 152.914 101.868 152.35 101.85C151.768 101.85 151.636 101.774 151.636 101.474C151.636 101.23 151.505 101.098 151.261 101.098C150.941 101.098 150.885 100.967 150.885 100.365C150.885 99.9518 150.791 99.576 150.659 99.5385C150.471 99.4633 150.49 99.3881 150.697 99.2378C150.904 99.0875 146.338 99.0311 135.101 99.0311C126.364 99.0311 116.781 98.9935 113.774 98.9372L108.325 98.8432L107.104 100.121Z" fill="url(#paint15_linear_4008_511)"/>
<path d="M152.426 99.2377C152.463 99.3692 152.651 99.4819 152.82 99.5195C153.252 99.5759 153.215 99.4631 152.745 99.2001C152.426 99.0498 152.369 99.0498 152.426 99.2377Z" fill="white" fill-opacity="0.56"/>
<path d="M152.012 101.267C152.012 101.38 152.087 101.511 152.2 101.568C152.313 101.624 152.332 101.549 152.275 101.399C152.144 101.06 152.012 101.004 152.012 101.267Z" fill="white" fill-opacity="0.56"/>
<path d="M56.1825 107.092C56.0322 107.205 54.792 107.299 53.364 107.299C51.9735 107.299 50.3951 107.355 49.8502 107.411L48.8919 107.543L49.3429 107.994C49.7751 108.426 49.8127 108.802 49.4181 108.802C49.3241 108.802 48.798 108.539 48.2719 108.219L47.2948 107.656L34.7805 107.505C27.9034 107.43 22.2287 107.393 22.1912 107.411C21.8905 107.656 25.4231 112.56 25.8928 112.56C26.0619 112.56 36.9978 112.56 50.1697 112.56C63.3415 112.579 89.1028 112.579 107.386 112.579L140.663 112.56L141.884 110.812C143.2 108.971 143.989 107.674 143.876 107.562C143.838 107.524 133.41 107.486 120.708 107.486C101.993 107.468 97.5208 107.411 97.1638 107.223C96.7504 106.998 96.3558 107.092 93.2179 108.163C87.6184 110.08 82.9397 110.85 77.0396 110.869C70.5757 110.869 65.0702 109.91 59.9405 107.862C57.8924 107.036 56.6335 106.791 56.1825 107.092Z" fill="url(#paint16_linear_4008_511)"/>
<path d="M27.8094 116.187C27.8094 116.337 31.6238 120.508 32.1687 120.978C32.3942 121.166 42.6536 121.204 83.2215 121.204H134.011L135.383 119.738C136.623 118.423 138.014 116.769 138.352 116.187C138.464 116.018 125.8 115.98 83.1463 115.999C52.7063 116.018 27.8094 116.111 27.8094 116.187Z" fill="url(#paint17_linear_4008_511)"/>
<path d="M18.0573 117.408C17.0427 117.915 16.6481 118.592 16.5729 119.945C16.5353 120.865 16.5917 121.241 16.8923 121.73C18.4519 124.21 22.1724 123.12 22.1724 120.189C22.1724 117.859 20.0115 116.393 18.0573 117.408Z" fill="white" fill-opacity="0.56"/>
<path d="M147.014 118.836C145.717 119.418 145.229 121.016 145.924 122.35C146.281 123.064 147.333 123.533 148.179 123.383C149.006 123.214 150.133 121.955 150.133 121.203C150.133 119.381 148.517 118.159 147.014 118.836Z" fill="white" fill-opacity="0.56"/>
<path d="M126.044 124.492C125.988 124.548 105.713 124.604 81.0042 124.623C56.2764 124.623 36.077 124.698 36.1146 124.774C36.2274 125.055 38.501 126.934 40.4739 128.363L42.5033 129.847H83.3154C120.971 129.847 124.146 129.828 124.579 129.527C125.668 128.813 127.209 127.592 128.694 126.314C129.558 125.582 130.328 124.961 130.422 124.961C130.516 124.961 130.591 124.83 130.591 124.68C130.591 124.454 130.216 124.398 128.374 124.398C127.153 124.398 126.101 124.435 126.044 124.492Z" fill="url(#paint18_linear_4008_511)"/>
<path d="M136.134 131.012C134.612 131.557 133.711 132.853 133.729 134.451C133.748 137.344 136.623 138.96 139.122 137.476C140.287 136.799 141.039 135.334 140.851 134.131C140.456 131.688 138.277 130.26 136.134 131.012Z" fill="white" fill-opacity="0.56"/>
<path d="M32.1875 131.294C31.962 131.331 31.5486 131.632 31.2855 131.951C30.9097 132.402 30.8158 132.703 30.8534 133.304C30.8909 133.924 31.0225 134.131 31.5674 134.507C32.0371 134.826 32.3754 134.92 32.7887 134.845C34.5174 134.488 34.9308 132.083 33.3525 131.444C32.9954 131.294 32.676 131.181 32.6572 131.181C32.6196 131.2 32.4129 131.256 32.1875 131.294Z" fill="white" fill-opacity="0.56"/>
<path d="M48.4973 133.361C48.1215 133.436 48.4785 133.661 50.1885 134.488C59.1326 138.772 66.9117 141.196 75.3484 142.342C78.5052 142.775 83.447 142.906 86.4158 142.643C96.7128 141.722 103.12 140.238 111.05 136.931C114.808 135.353 118.058 133.793 118.509 133.342C118.622 133.229 49.1362 133.248 48.4973 133.361Z" fill="url(#paint19_linear_4008_511)"/>
<path d="M124.391 140.313C123.226 140.463 122.756 141.29 123.282 142.305C123.62 142.925 123.808 143 125.349 143C126.589 143 126.815 142.944 127.172 142.568C127.735 141.967 127.698 141.215 127.096 140.651C126.589 140.181 126.101 140.125 124.391 140.313Z" fill="white" fill-opacity="0.56"/>
<path d="M215.6 108.3V110.4C215.6 110.733 215.767 110.9 216.1 110.9H221.1C221.433 110.9 221.6 110.733 221.6 110.4V103.2L219 107H216.4C211.267 107 207.567 105.9 205.3 103.7C203.1 101.433 202 97.7667 202 92.7V71.3C202 66.1667 203.067 62.5 205.2 60.3C207.4 58.1 211 57 216 57H216.9C218.633 57 220.2 57.3 221.6 57.9V57H235.2V107.9C235.2 112.967 234.067 116.6 231.8 118.8C229.6 121.067 225.933 122.2 220.8 122.2H216.4C211.467 122.2 207.833 121.067 205.5 118.8C203.167 116.533 202 113.067 202 108.4V108.3H215.6ZM216.1 70.3C215.767 70.3 215.6 70.4667 215.6 70.8V93.2C215.6 93.5333 215.767 93.7 216.1 93.7H221.6V70.3H216.1ZM258.807 70.8C258.807 70.4667 258.64 70.3 258.307 70.3H253.307C252.974 70.3 252.807 70.4667 252.807 70.8V94C252.807 94.3333 252.974 94.5 253.307 94.5H258.307C258.64 94.5 258.807 94.3333 258.807 94V70.8ZM239.207 93.5V71.3C239.207 66.1667 240.307 62.5 242.507 60.3C244.774 58.1 248.474 57 253.607 57H258.007C263.14 57 266.807 58.1 269.007 60.3C271.274 62.5 272.407 66.1667 272.407 71.3V93.5C272.407 98.5667 271.274 102.233 269.007 104.5C266.807 106.7 263.14 107.8 258.007 107.8H253.607C248.474 107.8 244.774 106.7 242.507 104.5C240.307 102.3 239.207 98.6333 239.207 93.5ZM290.814 107C285.681 107 281.981 105.9 279.714 103.7C277.514 101.433 276.414 97.7667 276.414 92.7V71.3C276.414 66.1667 277.481 62.5 279.614 60.3C281.814 58.1 285.414 57 290.414 57H291.314C293.047 57 294.614 57.3 296.014 57.9V57H309.614V93.7H310.614L311.614 107H296.014V101.7L292.414 107H290.814ZM290.514 70.3C290.181 70.3 290.014 70.4667 290.014 70.8V93.2C290.014 93.5333 290.181 93.7 290.514 93.7H296.014V70.3H290.514ZM316.198 107V50.3H314.598L315.598 37H329.798V93.7H331.798L332.798 107H316.198ZM335.789 88L349.389 89V93.2C349.389 93.5333 349.556 93.7 349.889 93.7H355.889C356.222 93.7 356.389 93.5333 356.389 93.2V90.2L341.389 84.7C340.322 84.3667 339.122 83.6667 337.789 82.6C336.456 81.5333 335.789 79.8667 335.789 77.6V65.9C335.789 63.0333 336.656 60.7667 338.389 59.1C340.122 57.4333 342.389 56.6 345.189 56.6H355.589C360.722 56.6 364.389 57.7 366.589 59.9C368.856 62.1 369.989 65.7667 369.989 70.9V75.6L356.389 74.6V70.4C356.389 70.0667 356.222 69.9 355.889 69.9H349.889C349.556 69.9 349.389 70.0667 349.389 70.4V73.3L364.389 78.8C365.456 79.1333 366.656 79.8333 367.989 80.9C369.322 81.9667 369.989 83.6333 369.989 85.9V97.7C369.989 100.5 369.122 102.767 367.389 104.5C365.656 106.167 363.389 107 360.589 107H350.189C345.056 107 341.356 105.9 339.089 103.7C336.889 101.433 335.789 97.7667 335.789 92.7V88ZM373.973 107V96.7H384.273V107H373.973ZM389.83 53L390.83 39.7H403.43V53H389.83ZM389.83 107V70.3H388.23L389.23 57H403.43V107H389.83ZM427.557 70.8C427.557 70.4667 427.39 70.3 427.057 70.3H422.057C421.724 70.3 421.557 70.4667 421.557 70.8V94C421.557 94.3333 421.724 94.5 422.057 94.5H427.057C427.39 94.5 427.557 94.3333 427.557 94V70.8ZM407.957 93.5V71.3C407.957 66.1667 409.057 62.5 411.257 60.3C413.524 58.1 417.224 57 422.357 57H426.757C431.89 57 435.557 58.1 437.757 60.3C440.024 62.5 441.157 66.1667 441.157 71.3V93.5C441.157 98.5667 440.024 102.233 437.757 104.5C435.557 106.7 431.89 107.8 426.757 107.8H422.357C417.224 107.8 413.524 106.7 411.257 104.5C409.057 102.3 407.957 98.6333 407.957 93.5Z" fill="url(#paint20_linear_4008_511)" fill-opacity="0.7"/>
<defs>
<linearGradient id="paint0_linear_4008_511" x1="109.534" y1="69.3162" x2="109.534" y2="0.432175" gradientUnits="userSpaceOnUse">
<stop stop-color="white"/>
<stop offset="1" stop-color="#393939"/>
</linearGradient>
<linearGradient id="paint1_linear_4008_511" x1="64.6326" y1="70.752" x2="64.6326" y2="2.90229" gradientUnits="userSpaceOnUse">
<stop stop-color="#03BDB7"/>
<stop offset="1" stop-color="#524499"/>
</linearGradient>
<linearGradient id="paint2_linear_4008_511" x1="47.3511" y1="94.7799" x2="110.275" y2="35.0273" gradientUnits="userSpaceOnUse">
<stop stop-color="white"/>
<stop offset="1" stop-color="#4A4A4A"/>
</linearGradient>
<linearGradient id="paint3_linear_4008_511" x1="131.597" y1="53.9197" x2="131.597" y2="27.2528" gradientUnits="userSpaceOnUse">
<stop stop-color="#03BDB7"/>
<stop offset="1" stop-color="#524499"/>
</linearGradient>
<linearGradient id="paint4_linear_4008_511" x1="139.799" y1="62.3904" x2="139.799" y2="57.1291" gradientUnits="userSpaceOnUse">
<stop stop-color="white"/>
<stop offset="1" stop-color="#393939"/>
</linearGradient>
<linearGradient id="paint5_linear_4008_511" x1="141.265" y1="70.564" x2="141.265" y2="65.5837" gradientUnits="userSpaceOnUse">
<stop stop-color="#03BDB7"/>
<stop offset="1" stop-color="#524499"/>
</linearGradient>
<linearGradient id="paint6_linear_4008_511" x1="140.626" y1="79.0195" x2="140.626" y2="73.9227" gradientUnits="userSpaceOnUse">
<stop stop-color="white"/>
<stop offset="1" stop-color="#393939"/>
</linearGradient>
<linearGradient id="paint7_linear_4008_511" x1="19.8987" y1="79.1135" x2="19.8987" y2="74.0346" gradientUnits="userSpaceOnUse">
<stop stop-color="white"/>
<stop offset="1" stop-color="#393939"/>
</linearGradient>
<linearGradient id="paint8_linear_4008_511" x1="27.7906" y1="95.563" x2="27.7906" y2="90.484" gradientUnits="userSpaceOnUse">
<stop stop-color="white"/>
<stop offset="1" stop-color="#393939"/>
</linearGradient>
<linearGradient id="paint9_linear_4008_511" x1="135.148" y1="87.46" x2="135.148" y2="82.3078" gradientUnits="userSpaceOnUse">
<stop stop-color="#03BDB7"/>
<stop offset="1" stop-color="#524499"/>
</linearGradient>
<linearGradient id="paint10_linear_4008_511" x1="131.435" y1="95.6245" x2="131.435" y2="90.6306" gradientUnits="userSpaceOnUse">
<stop stop-color="white"/>
<stop offset="1" stop-color="#393939"/>
</linearGradient>
<linearGradient id="paint11_linear_4008_511" x1="27.7747" y1="104.105" x2="27.7747" y2="98.9712" gradientUnits="userSpaceOnUse">
<stop stop-color="#03BDB7"/>
<stop offset="1" stop-color="#524499"/>
</linearGradient>
<linearGradient id="paint12_linear_4008_511" x1="46.2143" y1="104.104" x2="46.2143" y2="98.8433" gradientUnits="userSpaceOnUse">
<stop stop-color="#03BDB7"/>
<stop offset="1" stop-color="#524499"/>
</linearGradient>
<linearGradient id="paint13_linear_4008_511" x1="15.9269" y1="87.1485" x2="15.9269" y2="82.0151" gradientUnits="userSpaceOnUse">
<stop stop-color="#03BDB7"/>
<stop offset="1" stop-color="#524499"/>
</linearGradient>
<linearGradient id="paint14_linear_4008_511" x1="34.3666" y1="87.1486" x2="34.3666" y2="81.8874" gradientUnits="userSpaceOnUse">
<stop stop-color="#03BDB7"/>
<stop offset="1" stop-color="#524499"/>
</linearGradient>
<linearGradient id="paint15_linear_4008_511" x1="127.89" y1="104.108" x2="127.89" y2="98.8432" gradientUnits="userSpaceOnUse">
<stop stop-color="#03BDB7"/>
<stop offset="1" stop-color="#524499"/>
</linearGradient>
<linearGradient id="paint16_linear_4008_511" x1="83.0299" y1="112.579" x2="83.0299" y2="106.968" gradientUnits="userSpaceOnUse">
<stop stop-color="white"/>
<stop offset="1" stop-color="#393939"/>
</linearGradient>
<linearGradient id="paint17_linear_4008_511" x1="83.0809" y1="121.204" x2="83.0809" y2="115.994" gradientUnits="userSpaceOnUse">
<stop stop-color="#03BDB7"/>
<stop offset="1" stop-color="#524499"/>
</linearGradient>
<linearGradient id="paint18_linear_4008_511" x1="83.353" y1="129.847" x2="83.353" y2="124.398" gradientUnits="userSpaceOnUse">
<stop stop-color="white"/>
<stop offset="1" stop-color="#393939"/>
</linearGradient>
<linearGradient id="paint19_linear_4008_511" x1="83.4357" y1="142.778" x2="83.4357" y2="133.266" gradientUnits="userSpaceOnUse">
<stop stop-color="#03BDB7"/>
<stop offset="1" stop-color="#524499"/>
</linearGradient>
<linearGradient id="paint20_linear_4008_511" x1="200" y1="81.1792" x2="444" y2="81.1792" gradientUnits="userSpaceOnUse">
<stop stop-color="white"/>
<stop offset="1" stop-color="#CCCCCC"/>
</linearGradient>
</defs>
</svg>
